<svg width="30" height="30" viewBox="0 0 30 30" fill="none" xmlns="http://www.w3.org/2000/svg">
<g id="ic/frame/18_30/normal">
<g id="ic/24/24_close_bold_g">
<path id="Path" d="M9.88588 10.0003C9.68828 10.2544 9.70623 10.6217 9.93965 10.8551L14.0839 14.9994L9.93965 19.1448C9.68678 19.3977 9.68678 19.8076 9.93965 20.0605C10.0626 20.1834 10.227 20.25 10.3975 20.25L10.482 20.2445C10.6215 20.2263 10.7526 20.163 10.855 20.0605L15 15.9148L19.145 20.0605C19.2679 20.1834 19.4323 20.25 19.6028 20.25C19.7732 20.25 19.9374 20.1835 20.0604 20.0605L20.1142 19.9995C20.3117 19.7455 20.2938 19.3782 20.0604 19.1448L15.9154 14.9994L20.0604 10.8551C20.3132 10.6022 20.3132 10.1923 20.0604 9.93943L19.9994 9.88563C19.7457 9.68837 19.3785 9.7063 19.1451 9.93931L15 14.0847L10.855 9.93943C10.6025 9.68688 10.1926 9.68688 9.93977 9.93931L9.88588 10.0003Z" fill="white"/>
</g>
</g>
</svg>
