<svg width="24" height="24" viewBox="0 0 24 24" fill="none" xmlns="http://www.w3.org/2000/svg">
<g id="vuesax/linear/key-square">
<g id="key-square">
<path id="Vector" d="M9 22H15C20 22 22 20 22 15V9C22 4 20 2 15 2H9C4 2 2 4 2 9V15C2 20 4 22 9 22Z" stroke="#475069" stroke-width="1.5" stroke-linecap="round" stroke-linejoin="round"/>
<path id="Vector_2" d="M16.28 13.6099C15.15 14.7399 13.53 15.0899 12.1 14.6399L9.51001 17.2199C9.33001 17.4099 8.96001 17.5299 8.69001 17.4899L7.49001 17.3299C7.09001 17.2799 6.73001 16.8999 6.67001 16.5099L6.51001 15.3099C6.47001 15.0499 6.60001 14.6799 6.78001 14.4899L9.36001 11.9099C8.92001 10.4799 9.26001 8.85989 10.39 7.72989C12.01 6.10989 14.65 6.10989 16.28 7.72989C17.9 9.33989 17.9 11.9799 16.28 13.6099Z" stroke="#475069" stroke-width="1.5" stroke-miterlimit="10" stroke-linecap="round" stroke-linejoin="round"/>
<path id="Vector_3" d="M10.45 16.2799L9.59998 15.4199" stroke="#475069" stroke-width="1.5" stroke-miterlimit="10" stroke-linecap="round" stroke-linejoin="round"/>
<path id="Vector_4" d="M13.3945 10.7H13.4035" stroke="#475069" stroke-width="2" stroke-linecap="round" stroke-linejoin="round"/>
</g>
</g>
</svg>
