<svg width="74" height="74" viewBox="0 0 74 74" fill="none" xmlns="http://www.w3.org/2000/svg">
<g id="Customer Support Entry">
<g id="Ellipse 9" filter="url(#filter0_d_2153_4081)">
<circle cx="31" cy="31" r="25" fill="#5A4AF4"/>
</g>
<g id="ic:round-question-mark">
<path id="Vector" d="M25.9 25.425C24.9 25 24.475 23.7625 25.075 22.8625C26.2875 21.0625 28.3125 19.75 30.9875 19.75C33.925 19.75 35.9375 21.0875 36.9625 22.7625C37.8375 24.2 38.35 26.8875 37 28.8875C35.5 31.1 34.0625 31.775 33.2875 33.2C33.1 33.5375 32.9875 33.8125 32.9125 34.375C32.8 35.2875 32.05 36 31.125 36C30.0375 36 29.15 35.0625 29.275 33.975C29.35 33.3375 29.5 32.675 29.85 32.05C30.8125 30.3125 32.6625 29.2875 33.7375 27.75C34.875 26.1375 34.2375 23.125 31.0125 23.125C29.55 23.125 28.6 23.8875 28.0125 24.8C27.575 25.5125 26.6625 25.7375 25.9 25.425ZM33.5 41C33.5 42.375 32.375 43.5 31 43.5C29.625 43.5 28.5 42.375 28.5 41C28.5 39.625 29.625 38.5 31 38.5C32.375 38.5 33.5 39.625 33.5 41Z" fill="#EBEEF5"/>
</g>
</g>
<defs>
<filter id="filter0_d_2153_4081" x="0" y="0" width="74" height="74" filterUnits="userSpaceOnUse" color-interpolation-filters="sRGB">
<feFlood flood-opacity="0" result="BackgroundImageFix"/>
<feColorMatrix in="SourceAlpha" type="matrix" values="0 0 0 0 0 0 0 0 0 0 0 0 0 0 0 0 0 0 127 0" result="hardAlpha"/>
<feOffset dx="6" dy="6"/>
<feGaussianBlur stdDeviation="6"/>
<feComposite in2="hardAlpha" operator="out"/>
<feColorMatrix type="matrix" values="0 0 0 0 0 0 0 0 0 0 0 0 0 0 0 0 0 0 0.25 0"/>
<feBlend mode="normal" in2="BackgroundImageFix" result="effect1_dropShadow_2153_4081"/>
<feBlend mode="normal" in="SourceGraphic" in2="effect1_dropShadow_2153_4081" result="shape"/>
</filter>
</defs>
</svg>
